<?xml version="1.0" encoding="UTF-8"?>
<!DOCTYPE svg PUBLIC "-//W3C//DTD SVG 1.1//EN" "http://www.w3.org/Graphics/SVG/1.1/DTD/svg11.dtd">
<svg xmlns="http://www.w3.org/2000/svg" version="1.1" width="481px" height="519px" style="shape-rendering:geometricPrecision; text-rendering:geometricPrecision; image-rendering:optimizeQuality; fill-rule:evenodd; clip-rule:evenodd" xmlns:xlink="http://www.w3.org/1999/xlink">
<g><path style="opacity:0.004" fill="#fefffe" d="M 87.5,4.5 C 88.8333,5.16667 88.8333,5.16667 87.5,4.5 Z"/></g>
<g><path style="opacity:0.004" fill="#fefffe" d="M 285.5,4.5 C 286.833,5.16667 286.833,5.16667 285.5,4.5 Z"/></g>
<g><path style="opacity:0.004" fill="#fefffe" d="M 159.5,16.5 C 160.833,17.1667 160.833,17.1667 159.5,16.5 Z"/></g>
<g><path style="opacity:1" fill="#f0d786" d="M 223.5,19.5 C 223.5,19.8333 223.5,20.1667 223.5,20.5C 219.202,21.1995 214.869,21.5328 210.5,21.5C 214.639,20.4371 218.972,19.7704 223.5,19.5 Z"/></g>
<g><path style="opacity:1" fill="#eccb52" d="M 223.5,20.5 C 223.389,21.1174 223.056,21.6174 222.5,22C 214.5,22.5667 206.5,23.0667 198.5,23.5C 202.236,22.0109 206.236,21.3442 210.5,21.5C 214.869,21.5328 219.202,21.1995 223.5,20.5 Z"/></g>
<g><path style="opacity:1" fill="#f3c82d" d="M 223.5,20.5 C 241.212,20.2722 258.879,20.9389 276.5,22.5C 278.621,22.3253 280.621,22.6586 282.5,23.5C 284.645,24.9784 286.979,26.3118 289.5,27.5C 294.462,28.496 299.462,29.1627 304.5,29.5C 305.5,29.5 306.5,29.5 307.5,29.5C 307.804,30.1499 308.137,30.8165 308.5,31.5C 313.121,33.0409 317.788,34.3742 322.5,35.5C 322.833,35.5 323.167,35.5 323.5,35.5C 323.369,36.3764 323.702,37.0431 324.5,37.5C 328.09,39.1322 331.757,40.4655 335.5,41.5C 340.098,42.4654 344.098,44.4654 347.5,47.5C 347.5,48.5 347.5,49.5 347.5,50.5C 351.934,51.8825 356.267,53.5492 360.5,55.5C 362.062,55.7329 363.395,56.3995 364.5,57.5C 364.281,58.675 364.614,59.675 365.5,60.5C 368.393,62.4446 371.393,64.1113 374.5,65.5C 375.71,65.9321 376.71,66.5987 377.5,67.5C 378.502,69.0109 379.169,70.6776 379.5,72.5C 380.552,72.3505 381.552,72.5172 382.5,73C 384.417,75.4226 386.75,77.2559 389.5,78.5C 389.833,78.5 390.167,78.5 390.5,78.5C 390.617,80.4835 389.95,82.1502 388.5,83.5C 389.806,84.9122 390.64,86.5789 391,88.5C 391.483,87.552 391.649,86.552 391.5,85.5C 396.647,87.6267 401.314,90.6267 405.5,94.5C 407.435,96.9691 408.768,99.8024 409.5,103C 408.548,104.3 408.548,105.467 409.5,106.5C 411.005,103.869 411.671,104.203 411.5,107.5C 413.858,107.253 415.858,107.919 417.5,109.5C 417.561,113.071 419.227,115.404 422.5,116.5C 426.953,121.967 430.619,127.967 433.5,134.5C 433.609,137.899 434.942,140.566 437.5,142.5C 437.5,145.167 437.5,147.833 437.5,150.5C 438.675,150.281 439.675,150.614 440.5,151.5C 441.035,153.261 442.035,154.594 443.5,155.5C 444.726,161.515 446.726,167.182 449.5,172.5C 451.44,179.003 452.773,185.669 453.5,192.5C 454.011,194.884 455.011,196.884 456.5,198.5C 456.5,200.833 456.5,203.167 456.5,205.5C 450.635,200.824 444.968,195.824 439.5,190.5C 438.139,188.972 436.972,187.305 436,185.5C 411.097,160.099 385.597,135.099 359.5,110.5C 359.389,109.883 359.056,109.383 358.5,109C 354.848,108.501 351.182,108.335 347.5,108.5C 347.5,107.833 347.167,107.5 346.5,107.5C 342.532,103.361 338.699,99.0272 335,94.5C 333.729,93.1175 332.229,92.1175 330.5,91.5C 330.672,90.5084 330.338,89.8417 329.5,89.5C 323.5,89.5 317.5,89.5 311.5,89.5C 311.5,95.8333 311.5,102.167 311.5,108.5C 299.735,109.819 288.069,109.819 276.5,108.5C 282.509,108.666 288.509,108.499 294.5,108C 288.38,102.231 282.38,96.3972 276.5,90.5C 270.355,89.5098 264.022,89.1765 257.5,89.5C 257.5,95.5 257.5,101.5 257.5,107.5C 251.591,108.455 245.591,108.789 239.5,108.5C 234.287,102.076 228.62,96.076 222.5,90.5C 216.69,89.5104 210.69,89.1771 204.5,89.5C 203.51,95.6446 203.177,101.978 203.5,108.5C 197.833,108.5 192.167,108.5 186.5,108.5C 180.926,101.724 174.926,95.3905 168.5,89.5C 162.5,89.5 156.5,89.5 150.5,89.5C 148.863,94.7742 147.863,100.441 147.5,106.5C 138.22,107.473 128.887,107.807 119.5,107.5C 119.167,201.668 119.501,295.668 120.5,389.5C 120.833,389.5 121.167,389.5 121.5,389.5C 121.5,390.833 122.167,391.5 123.5,391.5C 125.418,393.549 126.918,395.883 128,398.5C 131.974,399.807 134.641,402.474 136,406.5C 138.167,408 140.333,409.5 142.5,411C 153.623,423.801 165.29,435.968 177.5,447.5C 176.903,448.139 176.07,448.472 175,448.5C 168.853,446.889 162.687,445.222 156.5,443.5C 152.799,439.484 148.133,437.484 142.5,437.5C 139.008,436.59 136.008,434.924 133.5,432.5C 132.766,431.292 132.433,429.959 132.5,428.5C 130.097,428.552 127.764,428.219 125.5,427.5C 115.102,422.303 105.768,415.636 97.5,407.5C 96.9478,405.669 96.9478,404.003 97.5,402.5C 95.9793,402.12 94.3126,401.954 92.5,402C 89.2173,399.214 86.5507,396.047 84.5,392.5C 85.7866,390.84 87.1199,389.174 88.5,387.5C 87.5,386.5 86.5,385.5 85.5,384.5C 84.0019,386.159 82.5019,387.825 81,389.5C 79.2691,388.259 77.4358,387.259 75.5,386.5C 72.4898,382.126 69.8232,377.459 67.5,372.5C 64.2287,370.25 62.2287,367.25 61.5,363.5C 60.1667,363.5 58.8333,363.5 57.5,363.5C 56.2074,359.914 55.2074,356.248 54.5,352.5C 53.5,352.5 52.5,352.5 51.5,352.5C 51.7525,349.68 51.2525,347.014 50,344.5C 49.6667,345.167 49.3333,345.833 49,346.5C 48.2798,344.944 47.1132,343.944 45.5,343.5C 45.4771,340.543 44.4771,338.043 42.5,336C 45.2896,333.79 46.123,330.956 45,327.5C 44.0853,328.328 43.4186,329.328 43,330.5C 42.3333,329.167 41.6667,329.167 41,330.5C 40.7104,328.956 40.0437,327.623 39,326.5C 38.5441,323.428 38.5441,320.428 39,317.5C 38.6667,317.167 38.3333,316.833 38,316.5C 37.2411,318.063 36.0744,319.063 34.5,319.5C 33.7444,315.233 32.411,311.233 30.5,307.5C 29.7018,296.119 27.2018,285.119 23,274.5C 20.3534,253.222 19.8534,231.888 21.5,210.5C 21.4258,206.016 22.0925,201.683 23.5,197.5C 24.9311,197.119 25.7645,196.119 26,194.5C 27.0754,190.23 27.5754,185.897 27.5,181.5C 28.6363,176.76 29.9696,172.093 31.5,167.5C 33.2948,164.596 35.1282,161.596 37,158.5C 37.4955,156.527 37.6621,154.527 37.5,152.5C 39.4331,151.358 40.9331,149.692 42,147.5C 44.4346,140.613 47.268,133.947 50.5,127.5C 53.5107,120.803 57.5107,114.803 62.5,109.5C 67.0338,107.252 70.0338,103.752 71.5,99C 72.4491,98.3828 73.2825,98.5494 74,99.5C 76.1076,96.282 77.941,92.9487 79.5,89.5C 83.3322,85.8362 87.3322,82.3362 91.5,79C 93.4641,77.549 94.7974,75.7157 95.5,73.5C 99.5873,69.0775 104.254,65.4108 109.5,62.5C 112.962,61.8467 116.128,60.5134 119,58.5C 120.244,60.5764 122.077,61.5764 124.5,61.5C 124.703,59.6096 124.037,58.1096 122.5,57C 124.617,53.7156 127.617,51.8823 131.5,51.5C 131.433,50.0413 131.766,48.7079 132.5,47.5C 138.502,45.8327 143.835,43.166 148.5,39.5C 154.067,37.6459 159.734,35.9792 165.5,34.5C 166.193,33.4822 166.859,32.4822 167.5,31.5C 172.27,31.3083 176.937,30.4749 181.5,29C 183.32,28.7996 184.653,27.9663 185.5,26.5C 188.187,26.6641 190.854,26.4974 193.5,26C 195.437,25.8784 196.77,25.045 197.5,23.5C 197.833,23.5 198.167,23.5 198.5,23.5C 206.5,23.0667 214.5,22.5667 222.5,22C 223.056,21.6174 223.389,21.1174 223.5,20.5 Z"/></g>
<g><path style="opacity:1" fill="#ecd266" d="M 223.5,20.5 C 223.5,20.1667 223.5,19.8333 223.5,19.5C 236.171,19.3334 248.838,19.5001 261.5,20C 266.706,20.4367 271.706,21.27 276.5,22.5C 258.879,20.9389 241.212,20.2722 223.5,20.5 Z"/></g>
<g><path style="opacity:0.004" fill="#fefffe" d="M 457.5,21.5 C 458.833,22.1667 458.833,22.1667 457.5,21.5 Z"/></g>
<g><path style="opacity:1" fill="#edce5f" d="M 197.5,23.5 C 196.77,25.045 195.437,25.8784 193.5,26C 190.854,26.4974 188.187,26.6641 185.5,26.5C 189.239,24.8984 193.239,23.8984 197.5,23.5 Z"/></g>
<g><path style="opacity:0.004" fill="#fefffe" d="M 458.5,26.5 C 459.833,27.1667 459.833,27.1667 458.5,26.5 Z"/></g>
<g><path style="opacity:1" fill="#ead066" d="M 185.5,26.5 C 184.653,27.9663 183.32,28.7996 181.5,29C 176.937,30.4749 172.27,31.3083 167.5,31.5C 173.292,29.4636 179.292,27.797 185.5,26.5 Z"/></g>
<g><path style="opacity:1" fill="#edcf5a" d="M 282.5,23.5 C 290.189,24.5866 297.522,26.5866 304.5,29.5C 299.462,29.1627 294.462,28.496 289.5,27.5C 286.979,26.3118 284.645,24.9784 282.5,23.5 Z"/></g>
<g><path style="opacity:0.004" fill="#fefffe" d="M 33.5,28.5 C 34.8333,29.1667 34.8333,29.1667 33.5,28.5 Z"/></g>
<g><path style="opacity:0.004" fill="#fefffe" d="M 144.5,31.5 C 145.833,32.1667 145.833,32.1667 144.5,31.5 Z"/></g>
<g><path style="opacity:1" fill="#efd36e" d="M 307.5,29.5 C 312.735,31.129 317.735,33.129 322.5,35.5C 317.788,34.3742 313.121,33.0409 308.5,31.5C 308.137,30.8165 307.804,30.1499 307.5,29.5 Z"/></g>
<g><path style="opacity:0.004" fill="#fefffe" d="M 429.5,34.5 C 430.833,35.1667 430.833,35.1667 429.5,34.5 Z"/></g>
<g><path style="opacity:1" fill="#eed47b" d="M 323.5,35.5 C 327.813,36.9899 331.813,38.9899 335.5,41.5C 331.757,40.4655 328.09,39.1322 324.5,37.5C 323.702,37.0431 323.369,36.3764 323.5,35.5 Z"/></g>
<g><path style="opacity:0.004" fill="#fefffe" d="M 80.5,38.5 C 81.8333,39.1667 81.8333,39.1667 80.5,38.5 Z"/></g>
<g><path style="opacity:1" fill="#edce60" d="M 167.5,31.5 C 166.859,32.4822 166.193,33.4822 165.5,34.5C 159.734,35.9792 154.067,37.6459 148.5,39.5C 154.42,36.0456 160.753,33.379 167.5,31.5 Z"/></g>
<g><path style="opacity:0.004" fill="#fefffe" d="M 455.5,41.5 C 456.833,42.1667 456.833,42.1667 455.5,41.5 Z"/></g>
<g><path style="opacity:1" fill="#edd26b" d="M 148.5,39.5 C 143.835,43.166 138.502,45.8327 132.5,47.5C 137.281,43.8954 142.614,41.2288 148.5,39.5 Z"/></g>
<g><path style="opacity:0.004" fill="#fefffe" d="M 53.5,47.5 C 54.8333,48.1667 54.8333,48.1667 53.5,47.5 Z"/></g>
<g><path style="opacity:1" fill="#eed370" d="M 347.5,47.5 C 352.343,49.4176 356.677,52.0843 360.5,55.5C 356.267,53.5492 351.934,51.8825 347.5,50.5C 347.5,49.5 347.5,48.5 347.5,47.5 Z"/></g>
<g><path style="opacity:0.004" fill="#fefffe" d="M 436.5,54.5 C 437.833,55.1667 437.833,55.1667 436.5,54.5 Z"/></g>
<g><path style="opacity:1" fill="#edcc48" d="M 132.5,47.5 C 131.766,48.7079 131.433,50.0413 131.5,51.5C 127.617,51.8823 124.617,53.7156 122.5,57C 124.037,58.1096 124.703,59.6096 124.5,61.5C 122.077,61.5764 120.244,60.5764 119,58.5C 116.128,60.5134 112.962,61.8467 109.5,62.5C 116.352,56.3271 124.018,51.3271 132.5,47.5 Z"/></g>
<g><path style="opacity:0.004" fill="#fefffe" d="M 437.5,56.5 C 438.833,57.1667 438.833,57.1667 437.5,56.5 Z"/></g>
<g><path style="opacity:0.004" fill="#fefffe" d="M 39.5,58.5 C 40.8333,59.1667 40.8333,59.1667 39.5,58.5 Z"/></g>
<g><path style="opacity:1" fill="#ecd16a" d="M 364.5,57.5 C 368.146,59.8171 371.48,62.4838 374.5,65.5C 371.393,64.1113 368.393,62.4446 365.5,60.5C 364.614,59.675 364.281,58.675 364.5,57.5 Z"/></g>
<g><path style="opacity:0.004" fill="#fefffe" d="M 33.5,64.5 C 34.8333,65.1667 34.8333,65.1667 33.5,64.5 Z"/></g>
<g><path style="opacity:1" fill="#ebd15d" d="M 377.5,67.5 C 382.126,70.4578 386.126,74.1245 389.5,78.5C 386.75,77.2559 384.417,75.4226 382.5,73C 381.552,72.5172 380.552,72.3505 379.5,72.5C 379.169,70.6776 378.502,69.0109 377.5,67.5 Z"/></g>
<g><path style="opacity:1" fill="#ecd46d" d="M 95.5,73.5 C 94.7974,75.7157 93.4641,77.549 91.5,79C 87.3322,82.3362 83.3322,85.8362 79.5,89.5C 83.8122,83.1878 89.1455,77.8545 95.5,73.5 Z"/></g>
<g><path style="opacity:1" fill="#eecc4b" d="M 390.5,78.5 C 396.255,83.2508 401.255,88.5841 405.5,94.5C 401.314,90.6267 396.647,87.6267 391.5,85.5C 391.649,86.552 391.483,87.552 391,88.5C 390.64,86.5789 389.806,84.9122 388.5,83.5C 389.95,82.1502 390.617,80.4835 390.5,78.5 Z"/></g>
<g><path style="opacity:1" fill="#733411" d="M 150.5,89.5 C 156.5,89.5 162.5,89.5 168.5,89.5C 168.5,95.8333 168.5,102.167 168.5,108.5C 168.5,108.833 168.5,109.167 168.5,109.5C 166.856,109.286 165.356,109.62 164,110.5C 163.829,105.467 163.329,100.467 162.5,95.5C 162.752,98.4448 162.252,101.445 161,104.5C 159.989,105.337 158.822,105.67 157.5,105.5C 157.26,102.421 157.593,99.4212 158.5,96.5C 157.675,95.6143 156.675,95.281 155.5,95.5C 155.657,96.8734 155.49,98.2068 155,99.5C 153.764,100.399 152.93,101.566 152.5,103C 153.851,105.677 155.184,108.343 156.5,111C 155.693,116.083 155.193,121.25 155,126.5C 154.667,121.5 154.333,116.5 154,111.5C 153.29,110.027 152.124,109.36 150.5,109.5C 150.5,109.167 150.5,108.833 150.5,108.5C 150.5,102.167 150.5,95.8333 150.5,89.5 Z"/></g>
<g><path style="opacity:1" fill="#723316" d="M 204.5,90.5 C 210.167,90.5 215.833,90.5 221.5,90.5C 221.5,96.5 221.5,102.5 221.5,108.5C 221.5,115.167 221.5,121.833 221.5,128.5C 215.833,128.5 210.167,128.5 204.5,128.5C 204.5,122.167 204.5,115.833 204.5,109.5C 204.5,103.167 204.5,96.8333 204.5,90.5 Z"/></g>
<g><path style="opacity:1" fill="#e5a521" d="M 330.5,91.5 C 332.229,92.1175 333.729,93.1175 335,94.5C 338.699,99.0272 342.532,103.361 346.5,107.5C 341.167,107.5 335.833,107.5 330.5,107.5C 330.5,102.167 330.5,96.8333 330.5,91.5 Z"/></g>
<g><path style="opacity:1" fill="#875a22" d="M 276.5,90.5 C 276.5,96.5 276.5,102.5 276.5,108.5C 276.167,108.5 275.833,108.5 275.5,108.5C 275.5,102.5 275.5,96.5 275.5,90.5C 270.833,90.5 266.167,90.5 261.5,90.5C 260.5,90.5 259.5,90.5 258.5,90.5C 258.5,96.5 258.5,102.5 258.5,108.5C 258.167,108.5 257.833,108.5 257.5,108.5C 257.5,108.167 257.5,107.833 257.5,107.5C 257.5,101.5 257.5,95.5 257.5,89.5C 264.022,89.1765 270.355,89.5098 276.5,90.5 Z"/></g>
<g><path style="opacity:1" fill="#905207" d="M 204.5,90.5 C 204.5,90.1667 204.5,89.8333 204.5,89.5C 210.69,89.1771 216.69,89.5104 222.5,90.5C 222.5,96.5 222.5,102.5 222.5,108.5C 222.167,108.5 221.833,108.5 221.5,108.5C 221.5,102.5 221.5,96.5 221.5,90.5C 215.833,90.5 210.167,90.5 204.5,90.5 Z"/></g>
<g><path style="opacity:1" fill="#eccd50" d="M 79.5,89.5 C 77.941,92.9487 76.1076,96.282 74,99.5C 73.2825,98.5494 72.4491,98.3828 71.5,99C 70.0338,103.752 67.0338,107.252 62.5,109.5C 66.7556,101.67 72.4223,95.003 79.5,89.5 Z"/></g>
<g><path style="opacity:1" fill="#e2a025" d="M 168.5,89.5 C 174.926,95.3905 180.926,101.724 186.5,108.5C 180.5,108.5 174.5,108.5 168.5,108.5C 168.5,102.167 168.5,95.8333 168.5,89.5 Z"/></g>
<g><path style="opacity:1" fill="#542a0e" d="M 329.5,89.5 C 329.5,95.8333 329.5,102.167 329.5,108.5C 329.5,108.833 329.5,109.167 329.5,109.5C 328.51,103.355 328.177,97.0221 328.5,90.5C 323.167,90.5 317.833,90.5 312.5,90.5C 312.823,97.0221 312.49,103.355 311.5,109.5C 311.5,109.167 311.5,108.833 311.5,108.5C 311.5,102.167 311.5,95.8333 311.5,89.5C 317.5,89.5 323.5,89.5 329.5,89.5 Z"/></g>
<g><path style="opacity:1" fill="#e4a523" d="M 276.5,90.5 C 282.38,96.3972 288.38,102.231 294.5,108C 288.509,108.499 282.509,108.666 276.5,108.5C 276.5,102.5 276.5,96.5 276.5,90.5 Z"/></g>
<g><path style="opacity:1" fill="#e5a426" d="M 222.5,90.5 C 228.62,96.076 234.287,102.076 239.5,108.5C 233.833,108.5 228.167,108.5 222.5,108.5C 222.5,102.5 222.5,96.5 222.5,90.5 Z"/></g>
<g><path style="opacity:1" fill="#49262e" d="M 261.5,90.5 C 266.167,90.5 270.833,90.5 275.5,90.5C 275.5,96.5 275.5,102.5 275.5,108.5C 275.5,109.5 275.5,110.5 275.5,111.5C 274.512,116.64 274.179,121.974 274.5,127.5C 269.5,127.5 264.5,127.5 259.5,127.5C 258.978,121.271 259.644,115.271 261.5,109.5C 258.919,103.053 258.919,96.7194 261.5,90.5 Z"/></g>
<g><path style="opacity:1" fill="#eece51" d="M 405.5,94.5 C 410.219,98.9437 414.219,103.944 417.5,109.5C 415.858,107.919 413.858,107.253 411.5,107.5C 411.671,104.203 411.005,103.869 409.5,106.5C 408.548,105.467 408.548,104.3 409.5,103C 408.768,99.8024 407.435,96.9691 405.5,94.5 Z"/></g>
<g><path style="opacity:1" fill="#e8c24e" d="M 150.5,89.5 C 150.5,95.8333 150.5,102.167 150.5,108.5C 140.5,108.5 130.5,108.5 120.5,108.5C 120.5,202.167 120.5,295.833 120.5,389.5C 119.501,295.668 119.167,201.668 119.5,107.5C 128.887,107.807 138.22,107.473 147.5,106.5C 147.863,100.441 148.863,94.7742 150.5,89.5 Z"/></g>
<g><path style="opacity:1" fill="#73351a" d="M 168.5,109.5 C 168.5,116.167 168.5,122.833 168.5,129.5C 162.5,129.5 156.5,129.5 150.5,129.5C 150.5,122.833 150.5,116.167 150.5,109.5C 152.124,109.36 153.29,110.027 154,111.5C 154.333,116.5 154.667,121.5 155,126.5C 155.193,121.25 155.693,116.083 156.5,111C 155.184,108.343 153.851,105.677 152.5,103C 152.93,101.566 153.764,100.399 155,99.5C 155.49,98.2068 155.657,96.8734 155.5,95.5C 156.675,95.281 157.675,95.6143 158.5,96.5C 157.593,99.4212 157.26,102.421 157.5,105.5C 158.822,105.67 159.989,105.337 161,104.5C 162.252,101.445 162.752,98.4448 162.5,95.5C 163.329,100.467 163.829,105.467 164,110.5C 165.356,109.62 166.856,109.286 168.5,109.5 Z"/></g>
<g><path style="opacity:1" fill="#d49f39" d="M 329.5,89.5 C 330.338,89.8417 330.672,90.5084 330.5,91.5C 330.5,96.8333 330.5,102.167 330.5,107.5C 335.833,107.5 341.167,107.5 346.5,107.5C 347.167,107.5 347.5,107.833 347.5,108.5C 341.5,108.5 335.5,108.5 329.5,108.5C 329.5,102.167 329.5,95.8333 329.5,89.5 Z"/></g>
<g><path style="opacity:1" fill="#e7c268" d="M 204.5,89.5 C 204.5,89.8333 204.5,90.1667 204.5,90.5C 204.5,96.8333 204.5,103.167 204.5,109.5C 192.5,109.5 180.5,109.5 168.5,109.5C 168.5,109.167 168.5,108.833 168.5,108.5C 174.5,108.5 180.5,108.5 186.5,108.5C 192.167,108.5 197.833,108.5 203.5,108.5C 203.177,101.978 203.51,95.6446 204.5,89.5 Z"/></g>
<g><path style="opacity:1" fill="#eccd71" d="M 257.5,107.5 C 257.5,107.833 257.5,108.167 257.5,108.5C 257.5,108.833 257.5,109.167 257.5,109.5C 251.5,109.5 245.5,109.5 239.5,109.5C 233.833,109.5 228.167,109.5 222.5,109.5C 222.5,109.167 222.5,108.833 222.5,108.5C 228.167,108.5 233.833,108.5 239.5,108.5C 245.591,108.789 251.591,108.455 257.5,107.5 Z"/></g>
<g><path style="opacity:1" fill="#49272f" d="M 329.5,109.5 C 329.5,116.167 329.5,122.833 329.5,129.5C 323.5,129.5 317.5,129.5 311.5,129.5C 311.5,122.833 311.5,116.167 311.5,109.5C 312.49,103.355 312.823,97.0221 312.5,90.5C 317.833,90.5 323.167,90.5 328.5,90.5C 328.177,97.0221 328.51,103.355 329.5,109.5 Z"/></g>
<g><path style="opacity:1" fill="#eee8da" d="M 150.5,109.5 C 150.5,116.167 150.5,122.833 150.5,129.5C 156.5,129.5 162.5,129.5 168.5,129.5C 168.5,122.833 168.5,116.167 168.5,109.5C 180.5,109.5 192.5,109.5 204.5,109.5C 204.5,115.833 204.5,122.167 204.5,128.5C 210.31,129.49 216.31,129.823 222.5,129.5C 222.5,122.833 222.5,116.167 222.5,109.5C 228.167,109.5 233.833,109.5 239.5,109.5C 239.5,131.5 239.5,153.5 239.5,175.5C 211.5,175.5 183.5,175.5 155.5,175.5C 155.5,178.833 155.5,182.167 155.5,185.5C 183.5,185.5 211.5,185.5 239.5,185.5C 239.5,192.5 239.5,199.5 239.5,206.5C 211.165,206.333 182.831,206.5 154.5,207C 155.451,210.057 155.784,213.223 155.5,216.5C 183.5,216.5 211.5,216.5 239.5,216.5C 239.5,223.833 239.5,231.167 239.5,238.5C 211.5,238.5 183.5,238.5 155.5,238.5C 155.5,241.5 155.5,244.5 155.5,247.5C 183.5,247.5 211.5,247.5 239.5,247.5C 240.464,254.746 240.797,262.08 240.5,269.5C 240.167,269.5 239.833,269.5 239.5,269.5C 211.5,269.5 183.5,269.5 155.5,269.5C 155.5,272.5 155.5,275.5 155.5,278.5C 183.5,278.5 211.5,278.5 239.5,278.5C 239.5,285.833 239.5,293.167 239.5,300.5C 211.167,300.5 182.833,300.5 154.5,300.5C 155.207,303.786 155.54,307.119 155.5,310.5C 183.5,310.5 211.5,310.5 239.5,310.5C 239.5,317.833 239.5,325.167 239.5,332.5C 211.5,332.5 183.5,332.5 155.5,332.5C 155.5,335.833 155.5,339.167 155.5,342.5C 183.5,342.5 211.5,342.5 239.5,342.5C 239.5,357.833 239.5,373.167 239.5,388.5C 200.5,388.5 161.5,388.5 122.5,388.5C 122.5,295.833 122.5,203.167 122.5,110.5C 131.652,109.506 140.985,109.173 150.5,109.5 Z"/></g>
<g><path style="opacity:1" fill="#e2dac2" d="M 275.5,108.5 C 275.833,108.5 276.167,108.5 276.5,108.5C 288.069,109.819 299.735,109.819 311.5,108.5C 311.5,108.833 311.5,109.167 311.5,109.5C 311.5,116.167 311.5,122.833 311.5,129.5C 317.5,129.5 323.5,129.5 329.5,129.5C 329.5,122.833 329.5,116.167 329.5,109.5C 338.416,110.471 347.416,110.804 356.5,110.5C 356.463,202.1 356.463,293.6 356.5,385C 357.094,385.464 357.761,385.631 358.5,385.5C 358.5,386.5 358.5,387.5 358.5,388.5C 357.5,388.5 356.5,388.5 355.5,388.5C 316.833,388.5 278.167,388.5 239.5,388.5C 239.5,373.167 239.5,357.833 239.5,342.5C 267.833,342.5 296.167,342.5 324.5,342.5C 324.5,339.167 324.5,335.833 324.5,332.5C 296.167,332.5 267.833,332.5 239.5,332.5C 239.5,325.167 239.5,317.833 239.5,310.5C 267.833,310.5 296.167,310.5 324.5,310.5C 324.5,307.167 324.5,303.833 324.5,300.5C 296.167,300.5 267.833,300.5 239.5,300.5C 239.5,293.167 239.5,285.833 239.5,278.5C 267.833,278.5 296.167,278.5 324.5,278.5C 324.5,275.5 324.5,272.5 324.5,269.5C 296.5,269.5 268.5,269.5 240.5,269.5C 240.797,262.08 240.464,254.746 239.5,247.5C 267.833,247.5 296.167,247.5 324.5,247.5C 324.5,244.5 324.5,241.5 324.5,238.5C 296.167,238.5 267.833,238.5 239.5,238.5C 239.5,231.167 239.5,223.833 239.5,216.5C 267.502,216.667 295.502,216.5 323.5,216C 324.451,212.943 324.784,209.777 324.5,206.5C 296.167,206.5 267.833,206.5 239.5,206.5C 239.5,199.5 239.5,192.5 239.5,185.5C 267.833,185.5 296.167,185.5 324.5,185.5C 324.5,182.167 324.5,178.833 324.5,175.5C 296.167,175.5 267.833,175.5 239.5,175.5C 239.5,153.5 239.5,131.5 239.5,109.5C 245.5,109.5 251.5,109.5 257.5,109.5C 257.5,116.167 257.5,122.833 257.5,129.5C 263.69,129.823 269.69,129.49 275.5,128.5C 275.5,122.833 275.5,117.167 275.5,111.5C 275.5,110.5 275.5,109.5 275.5,108.5 Z"/></g>
<g><path style="opacity:1" fill="#f5e6c1" d="M 122.5,110.5 C 122.5,203.167 122.5,295.833 122.5,388.5C 161.5,388.5 200.5,388.5 239.5,388.5C 278.167,388.5 316.833,388.5 355.5,388.5C 355.5,388.833 355.5,389.167 355.5,389.5C 277.5,389.5 199.5,389.5 121.5,389.5C 121.167,296.332 121.501,203.332 122.5,110.5 Z"/></g>
<g><path style="opacity:1" fill="#756057" d="M 257.5,108.5 C 257.833,108.5 258.167,108.5 258.5,108.5C 258.5,115.167 258.5,121.833 258.5,128.5C 264.167,128.5 269.833,128.5 275.5,128.5C 269.69,129.49 263.69,129.823 257.5,129.5C 257.5,122.833 257.5,116.167 257.5,109.5C 257.5,109.167 257.5,108.833 257.5,108.5 Z"/></g>
<g><path style="opacity:1" fill="#452925" d="M 261.5,90.5 C 258.919,96.7194 258.919,103.053 261.5,109.5C 259.644,115.271 258.978,121.271 259.5,127.5C 264.5,127.5 269.5,127.5 274.5,127.5C 274.179,121.974 274.512,116.64 275.5,111.5C 275.5,117.167 275.5,122.833 275.5,128.5C 269.833,128.5 264.167,128.5 258.5,128.5C 258.5,121.833 258.5,115.167 258.5,108.5C 258.5,102.5 258.5,96.5 258.5,90.5C 259.5,90.5 260.5,90.5 261.5,90.5 Z"/></g>
<g><path style="opacity:1" fill="#eece67" d="M 417.5,109.5 C 419.9,111.296 421.567,113.63 422.5,116.5C 419.227,115.404 417.561,113.071 417.5,109.5 Z"/></g>
<g><path style="opacity:1" fill="#eccf96" d="M 329.5,109.5 C 329.5,109.167 329.5,108.833 329.5,108.5C 335.5,108.5 341.5,108.5 347.5,108.5C 351.182,108.335 354.848,108.501 358.5,109C 359.056,109.383 359.389,109.883 359.5,110.5C 359.5,203.5 359.5,296.5 359.5,389.5C 358.167,389.5 356.833,389.5 355.5,389.5C 355.5,389.167 355.5,388.833 355.5,388.5C 356.5,388.5 357.5,388.5 358.5,388.5C 358.5,387.5 358.5,386.5 358.5,385.5C 358.667,294.166 358.5,202.833 358,111.5C 357.617,110.944 357.117,110.611 356.5,110.5C 347.416,110.804 338.416,110.471 329.5,109.5 Z"/></g>
<g><path style="opacity:1" fill="#e1a728" d="M 359.5,110.5 C 385.597,135.099 411.097,160.099 436,185.5C 436.972,187.305 438.139,188.972 439.5,190.5C 444.968,195.824 450.635,200.824 456.5,205.5C 456.5,207.167 456.5,208.833 456.5,210.5C 455.685,209.571 454.852,208.571 454,207.5C 453.667,207.833 453.333,208.167 453,208.5C 448.92,203.402 444.753,198.402 440.5,193.5C 436.178,189.184 431.511,185.184 426.5,181.5C 424.342,176.825 420.675,172.992 415.5,170C 409.944,163.2 403.944,156.867 397.5,151C 396.5,150.667 395.5,150.333 394.5,150C 393.167,149.333 393.167,148.667 394.5,148C 393.5,147.667 392.5,147.333 391.5,147C 391.833,146.667 392.167,146.333 392.5,146C 388.644,142.311 384.977,138.478 381.5,134.5C 379.671,135.282 378.171,134.616 377,132.5C 372.674,125.842 367.341,120.175 361,115.5C 360.833,207.001 360.333,298.334 359.5,389.5C 359.5,296.5 359.5,203.5 359.5,110.5 Z"/></g>
<g><path style="opacity:1" fill="#e5d8bd" d="M 356.5,110.5 C 357.117,110.611 357.617,110.944 358,111.5C 358.5,202.833 358.667,294.166 358.5,385.5C 357.761,385.631 357.094,385.464 356.5,385C 356.463,293.6 356.463,202.1 356.5,110.5 Z"/></g>
<g><path style="opacity:1" fill="#956f57" d="M 221.5,108.5 C 221.833,108.5 222.167,108.5 222.5,108.5C 222.5,108.833 222.5,109.167 222.5,109.5C 222.5,116.167 222.5,122.833 222.5,129.5C 216.31,129.823 210.31,129.49 204.5,128.5C 210.167,128.5 215.833,128.5 221.5,128.5C 221.5,121.833 221.5,115.167 221.5,108.5 Z"/></g>
<g><path style="opacity:1" fill="#e7a31f" d="M 456.5,210.5 C 458.357,228.074 459.024,245.741 458.5,263.5C 457.728,267.452 457.395,271.452 457.5,275.5C 457.218,279.574 456.552,283.574 455.5,287.5C 454.883,287.611 454.383,287.944 454,288.5C 450.129,301.999 445.963,315.332 441.5,328.5C 441.5,329.167 441.5,329.833 441.5,330.5C 440.5,330.5 439.5,330.5 438.5,330.5C 438.5,332.167 438.5,333.833 438.5,335.5C 437.312,336.684 436.145,336.684 435,335.5C 433.335,337.682 432.169,341.349 431.5,346.5C 430.264,347.246 428.93,347.579 427.5,347.5C 427.5,350.167 427.5,352.833 427.5,355.5C 426.5,355.5 425.5,355.5 424.5,355.5C 423.833,357.5 423.167,359.5 422.5,361.5C 421.5,361.5 420.5,361.5 419.5,361.5C 419.5,363.5 419.5,365.5 419.5,367.5C 417.94,367.481 416.44,367.148 415,366.5C 412.36,367.86 412.193,369.193 414.5,370.5C 413.675,371.386 412.675,371.719 411.5,371.5C 412.046,376.406 410.546,377.406 407,374.5C 406.333,375.5 406.333,376.5 407,377.5C 408.018,376.294 408.518,376.627 408.5,378.5C 408.167,379.167 407.833,379.833 407.5,380.5C 402.73,381.547 401.063,384.214 402.5,388.5C 402.167,389.5 401.5,390.167 400.5,390.5C 398.61,390.703 397.11,390.037 396,388.5C 395.503,390.81 395.337,393.143 395.5,395.5C 392.921,395.917 390.754,395.25 389,393.5C 387.272,395.194 387.772,396.361 390.5,397C 389.1,398.438 387.433,399.271 385.5,399.5C 385.5,400.833 385.5,402.167 385.5,403.5C 384.448,403.351 383.448,403.517 382.5,404C 383.711,404.893 383.711,405.726 382.5,406.5C 381.549,405.674 380.549,405.508 379.5,406C 377.978,407.916 376.978,410.083 376.5,412.5C 373.478,412.804 370.478,413.304 367.5,414C 370.069,415.878 369.736,417.378 366.5,418.5C 365.252,417.96 364.085,417.293 363,416.5C 363.195,418.126 363.195,419.793 363,421.5C 361.754,420.228 360.587,419.895 359.5,420.5C 360.246,421.736 360.579,423.07 360.5,424.5C 356.81,425.029 353.143,425.863 349.5,427C 347.612,429.707 345.612,432.207 343.5,434.5C 342.833,434.833 342.167,435.167 341.5,435.5C 336.284,436.923 330.951,437.756 325.5,438C 326.672,438.419 327.672,439.085 328.5,440C 326.833,440.333 325.167,440.667 323.5,441C 323.833,441.333 324.167,441.667 324.5,442C 321.228,443.138 318.228,444.638 315.5,446.5C 311.51,447.163 307.51,447.83 303.5,448.5C 301.055,448.597 298.889,447.93 297,446.5C 292.366,447.51 292.366,448.51 297,449.5C 297.47,450.577 297.303,451.577 296.5,452.5C 284.595,453.944 272.928,455.778 261.5,458C 246.167,458.667 230.833,458.667 215.5,458C 210.206,457.545 205.206,456.212 200.5,454C 194.398,453.734 188.398,452.901 182.5,451.5C 181.421,449.457 179.754,448.124 177.5,447.5C 165.29,435.968 153.623,423.801 142.5,411C 140.333,409.5 138.167,408 136,406.5C 134.641,402.474 131.974,399.807 128,398.5C 126.918,395.883 125.418,393.549 123.5,391.5C 202.189,391.178 280.856,391.512 359.5,392.5C 359.5,391.5 359.5,390.5 359.5,389.5C 360.333,298.334 360.833,207.001 361,115.5C 367.341,120.175 372.674,125.842 377,132.5C 378.171,134.616 379.671,135.282 381.5,134.5C 384.977,138.478 388.644,142.311 392.5,146C 392.167,146.333 391.833,146.667 391.5,147C 392.5,147.333 393.5,147.667 394.5,148C 393.167,148.667 393.167,149.333 394.5,150C 395.5,150.333 396.5,150.667 397.5,151C 403.944,156.867 409.944,163.2 415.5,170C 420.675,172.992 424.342,176.825 426.5,181.5C 431.511,185.184 436.178,189.184 440.5,193.5C 444.753,198.402 448.92,203.402 453,208.5C 453.333,208.167 453.667,207.833 454,207.5C 454.852,208.571 455.685,209.571 456.5,210.5 Z"/></g>
<g><path style="opacity:1" fill="#ebd166" d="M 433.5,134.5 C 435.387,136.789 436.721,139.455 437.5,142.5C 434.942,140.566 433.609,137.899 433.5,134.5 Z"/></g>
<g><path style="opacity:0.004" fill="#fefffe" d="M 13.5,144.5 C 14.8333,145.167 14.8333,145.167 13.5,144.5 Z"/></g>
<g><path style="opacity:1" fill="#eccf60" d="M 50.5,127.5 C 47.268,133.947 44.4346,140.613 42,147.5C 40.9331,149.692 39.4331,151.358 37.5,152.5C 40.9044,143.57 45.2377,135.237 50.5,127.5 Z"/></g>
<g><path style="opacity:1" fill="#eacc4e" d="M 437.5,142.5 C 440.284,146.405 442.284,150.738 443.5,155.5C 442.035,154.594 441.035,153.261 440.5,151.5C 439.675,150.614 438.675,150.281 437.5,150.5C 437.5,147.833 437.5,145.167 437.5,142.5 Z"/></g>
<g><path style="opacity:1" fill="#eacf67" d="M 443.5,155.5 C 446.668,160.667 448.668,166.334 449.5,172.5C 446.726,167.182 444.726,161.515 443.5,155.5 Z"/></g>
<g><path style="opacity:1" fill="#eed068" d="M 37.5,152.5 C 37.6621,154.527 37.4955,156.527 37,158.5C 35.1282,161.596 33.2948,164.596 31.5,167.5C 32.7376,162.105 34.7376,157.105 37.5,152.5 Z"/></g>
<g><path style="opacity:1" fill="#cdc19f" d="M 239.5,175.5 C 267.833,175.5 296.167,175.5 324.5,175.5C 324.5,178.833 324.5,182.167 324.5,185.5C 296.167,185.5 267.833,185.5 239.5,185.5C 239.5,182.167 239.5,178.833 239.5,175.5 Z"/></g>
<g><path style="opacity:1" fill="#e2dac5" d="M 239.5,175.5 C 239.5,178.833 239.5,182.167 239.5,185.5C 211.5,185.5 183.5,185.5 155.5,185.5C 155.5,182.167 155.5,178.833 155.5,175.5C 183.5,175.5 211.5,175.5 239.5,175.5 Z"/></g>
<g><path style="opacity:0.004" fill="#fefffe" d="M 17.5,182.5 C 18.8333,183.167 18.8333,183.167 17.5,182.5 Z"/></g>
<g><path style="opacity:1" fill="#eccf60" d="M 449.5,172.5 C 453.06,180.73 455.393,189.397 456.5,198.5C 455.011,196.884 454.011,194.884 453.5,192.5C 452.773,185.669 451.44,179.003 449.5,172.5 Z"/></g>
<g><path style="opacity:1" fill="#eecf5b" d="M 27.5,181.5 C 27.5754,185.897 27.0754,190.23 26,194.5C 25.7645,196.119 24.9311,197.119 23.5,197.5C 24.2317,191.906 25.565,186.573 27.5,181.5 Z"/></g>
<g><path style="opacity:1" fill="#e2dac5" d="M 239.5,206.5 C 239.5,209.833 239.5,213.167 239.5,216.5C 211.5,216.5 183.5,216.5 155.5,216.5C 155.784,213.223 155.451,210.057 154.5,207C 182.831,206.5 211.165,206.333 239.5,206.5 Z"/></g>
<g><path style="opacity:1" fill="#cdc19f" d="M 239.5,206.5 C 267.833,206.5 296.167,206.5 324.5,206.5C 324.784,209.777 324.451,212.943 323.5,216C 295.502,216.5 267.502,216.667 239.5,216.5C 239.5,213.167 239.5,209.833 239.5,206.5 Z"/></g>
<g><path style="opacity:1" fill="#fce499" d="M 150.5,108.5 C 150.5,108.833 150.5,109.167 150.5,109.5C 140.985,109.173 131.652,109.506 122.5,110.5C 121.501,203.332 121.167,296.332 121.5,389.5C 121.167,389.5 120.833,389.5 120.5,389.5C 120.5,295.833 120.5,202.167 120.5,108.5C 130.5,108.5 140.5,108.5 150.5,108.5 Z"/></g>
<g><path style="opacity:0.004" fill="#fefffe" d="M 12.5,229.5 C 13.8333,230.167 13.8333,230.167 12.5,229.5 Z"/></g>
<g><path style="opacity:1" fill="#deab44" d="M 456.5,198.5 C 458.293,205.259 459.46,212.259 460,219.5C 460.766,234.192 460.599,248.859 459.5,263.5C 459.167,263.5 458.833,263.5 458.5,263.5C 459.024,245.741 458.357,228.074 456.5,210.5C 456.5,208.833 456.5,207.167 456.5,205.5C 456.5,203.167 456.5,200.833 456.5,198.5 Z"/></g>
<g><path style="opacity:1" fill="#ccc09e" d="M 239.5,238.5 C 267.833,238.5 296.167,238.5 324.5,238.5C 324.5,241.5 324.5,244.5 324.5,247.5C 296.167,247.5 267.833,247.5 239.5,247.5C 239.5,244.5 239.5,241.5 239.5,238.5 Z"/></g>
<g><path style="opacity:1" fill="#e1dac4" d="M 239.5,238.5 C 239.5,241.5 239.5,244.5 239.5,247.5C 211.5,247.5 183.5,247.5 155.5,247.5C 155.5,244.5 155.5,241.5 155.5,238.5C 183.5,238.5 211.5,238.5 239.5,238.5 Z"/></g>
<g><path style="opacity:0.973" fill="#e3ba6a" d="M 458.5,263.5 C 458.833,263.5 459.167,263.5 459.5,263.5C 459.283,267.705 458.617,271.705 457.5,275.5C 457.395,271.452 457.728,267.452 458.5,263.5 Z"/></g>
<g><path style="opacity:1" fill="#ccc09e" d="M 239.5,269.5 C 239.833,269.5 240.167,269.5 240.5,269.5C 268.5,269.5 296.5,269.5 324.5,269.5C 324.5,272.5 324.5,275.5 324.5,278.5C 296.167,278.5 267.833,278.5 239.5,278.5C 239.5,275.5 239.5,272.5 239.5,269.5 Z"/></g>
<g><path style="opacity:1" fill="#e1dac4" d="M 239.5,269.5 C 239.5,272.5 239.5,275.5 239.5,278.5C 211.5,278.5 183.5,278.5 155.5,278.5C 155.5,275.5 155.5,272.5 155.5,269.5C 183.5,269.5 211.5,269.5 239.5,269.5 Z"/></g>
<g><path style="opacity:0.004" fill="#fefffe" d="M 16.5,273.5 C 17.8333,274.167 17.8333,274.167 16.5,273.5 Z"/></g>
<g><path style="opacity:1" fill="#edd05f" d="M 21.5,210.5 C 19.8534,231.888 20.3534,253.222 23,274.5C 27.2018,285.119 29.7018,296.119 30.5,307.5C 19.4704,275.904 16.4704,243.571 21.5,210.5 Z"/></g>
<g><path style="opacity:0.004" fill="#fefffe" d="M 16.5,291.5 C 17.8333,292.167 17.8333,292.167 16.5,291.5 Z"/></g>
<g><path style="opacity:1" fill="#e2dac4" d="M 239.5,300.5 C 239.5,303.833 239.5,307.167 239.5,310.5C 211.5,310.5 183.5,310.5 155.5,310.5C 155.54,307.119 155.207,303.786 154.5,300.5C 182.833,300.5 211.167,300.5 239.5,300.5 Z"/></g>
<g><path style="opacity:1" fill="#cdc19f" d="M 239.5,300.5 C 267.833,300.5 296.167,300.5 324.5,300.5C 324.5,303.833 324.5,307.167 324.5,310.5C 296.167,310.5 267.833,310.5 239.5,310.5C 239.5,307.167 239.5,303.833 239.5,300.5 Z"/></g>
<g><path style="opacity:0.937" fill="#eed475" d="M 30.5,307.5 C 32.411,311.233 33.7444,315.233 34.5,319.5C 32.1939,315.915 30.8606,311.915 30.5,307.5 Z"/></g>
<g><path style="opacity:1" fill="#e2b458" d="M 455.5,287.5 C 452.505,301.849 447.838,315.516 441.5,328.5C 445.963,315.332 450.129,301.999 454,288.5C 454.383,287.944 454.883,287.611 455.5,287.5 Z"/></g>
<g><path style="opacity:1" fill="#f1cc45" d="M 45.5,343.5 C 41.0732,335.903 37.4066,327.903 34.5,319.5C 36.0744,319.063 37.2411,318.063 38,316.5C 38.3333,316.833 38.6667,317.167 39,317.5C 38.5441,320.428 38.5441,323.428 39,326.5C 40.0437,327.623 40.7104,328.956 41,330.5C 41.6667,329.167 42.3333,329.167 43,330.5C 43.4186,329.328 44.0853,328.328 45,327.5C 46.123,330.956 45.2896,333.79 42.5,336C 44.4771,338.043 45.4771,340.543 45.5,343.5 Z"/></g>
<g><path style="opacity:1" fill="#e8bf76" d="M 441.5,330.5 C 440.737,332.368 439.737,334.035 438.5,335.5C 438.5,333.833 438.5,332.167 438.5,330.5C 439.5,330.5 440.5,330.5 441.5,330.5 Z"/></g>
<g><path style="opacity:1" fill="#cdc1a0" d="M 239.5,332.5 C 267.833,332.5 296.167,332.5 324.5,332.5C 324.5,335.833 324.5,339.167 324.5,342.5C 296.167,342.5 267.833,342.5 239.5,342.5C 239.5,339.167 239.5,335.833 239.5,332.5 Z"/></g>
<g><path style="opacity:1" fill="#e2dbc6" d="M 239.5,332.5 C 239.5,335.833 239.5,339.167 239.5,342.5C 211.5,342.5 183.5,342.5 155.5,342.5C 155.5,339.167 155.5,335.833 155.5,332.5C 183.5,332.5 211.5,332.5 239.5,332.5 Z"/></g>
<g><path style="opacity:1" fill="#e5af4a" d="M 438.5,335.5 C 435.845,342.817 432.178,349.484 427.5,355.5C 427.5,352.833 427.5,350.167 427.5,347.5C 428.93,347.579 430.264,347.246 431.5,346.5C 432.169,341.349 433.335,337.682 435,335.5C 436.145,336.684 437.312,336.684 438.5,335.5 Z"/></g>
<g><path style="opacity:1" fill="#edce56" d="M 45.5,343.5 C 47.1132,343.944 48.2798,344.944 49,346.5C 49.3333,345.833 49.6667,345.167 50,344.5C 51.2525,347.014 51.7525,349.68 51.5,352.5C 52.5,352.5 53.5,352.5 54.5,352.5C 55.2074,356.248 56.2074,359.914 57.5,363.5C 53.8763,357.764 49.8763,352.264 45.5,347C 46.1712,346.014 46.1712,344.847 45.5,343.5 Z"/></g>
<g><path style="opacity:1" fill="#e6ad4c" d="M 427.5,355.5 C 425.812,360.226 423.145,364.226 419.5,367.5C 419.5,365.5 419.5,363.5 419.5,361.5C 420.5,361.5 421.5,361.5 422.5,361.5C 423.167,359.5 423.833,357.5 424.5,355.5C 425.5,355.5 426.5,355.5 427.5,355.5 Z"/></g>
<g><path style="opacity:1" fill="#e5aa41" d="M 419.5,367.5 C 414.542,375.089 408.875,382.089 402.5,388.5C 401.063,384.214 402.73,381.547 407.5,380.5C 407.833,379.833 408.167,379.167 408.5,378.5C 408.518,376.627 408.018,376.294 407,377.5C 406.333,376.5 406.333,375.5 407,374.5C 410.546,377.406 412.046,376.406 411.5,371.5C 412.675,371.719 413.675,371.386 414.5,370.5C 412.193,369.193 412.36,367.86 415,366.5C 416.44,367.148 417.94,367.481 419.5,367.5 Z"/></g>
<g><path style="opacity:1" fill="#efcd54" d="M 57.5,363.5 C 58.8333,363.5 60.1667,363.5 61.5,363.5C 62.2287,367.25 64.2287,370.25 67.5,372.5C 69.8232,377.459 72.4898,382.126 75.5,386.5C 68.7675,379.431 62.7675,371.764 57.5,363.5 Z"/></g>
<g><path style="opacity:0.004" fill="#fefffe" d="M 33.5,379.5 C 34.8333,380.167 34.8333,380.167 33.5,379.5 Z"/></g>
<g><path style="opacity:1" fill="#eecb44" d="M 97.5,407.5 C 89.5285,401.196 82.1951,394.196 75.5,386.5C 77.4358,387.259 79.2691,388.259 81,389.5C 82.5019,387.825 84.0019,386.159 85.5,384.5C 86.5,385.5 87.5,386.5 88.5,387.5C 87.1199,389.174 85.7866,390.84 84.5,392.5C 86.5507,396.047 89.2173,399.214 92.5,402C 94.3126,401.954 95.9793,402.12 97.5,402.5C 96.9478,404.003 96.9478,405.669 97.5,407.5 Z"/></g>
<g><path style="opacity:1" fill="#e3a93b" d="M 121.5,389.5 C 199.5,389.5 277.5,389.5 355.5,389.5C 356.833,389.5 358.167,389.5 359.5,389.5C 359.5,390.5 359.5,391.5 359.5,392.5C 280.856,391.512 202.189,391.178 123.5,391.5C 122.167,391.5 121.5,390.833 121.5,389.5 Z"/></g>
<g><path style="opacity:0.004" fill="#fefffe" d="M 5.5,392.5 C 6.83333,393.167 6.83333,393.167 5.5,392.5 Z"/></g>
<g><path style="opacity:1" fill="#e7ae47" d="M 400.5,390.5 C 393.457,398.876 385.457,406.209 376.5,412.5C 376.978,410.083 377.978,407.916 379.5,406C 380.549,405.508 381.549,405.674 382.5,406.5C 383.711,405.726 383.711,404.893 382.5,404C 383.448,403.517 384.448,403.351 385.5,403.5C 385.5,402.167 385.5,400.833 385.5,399.5C 387.433,399.271 389.1,398.438 390.5,397C 387.772,396.361 387.272,395.194 389,393.5C 390.754,395.25 392.921,395.917 395.5,395.5C 395.337,393.143 395.503,390.81 396,388.5C 397.11,390.037 398.61,390.703 400.5,390.5 Z"/></g>
<g><path style="opacity:0.004" fill="#fefffe" d="M 74.5,410.5 C 75.8333,411.167 75.8333,411.167 74.5,410.5 Z"/></g>
<g><path style="opacity:1" fill="#e3ab44" d="M 376.5,412.5 C 371.563,416.975 366.23,420.975 360.5,424.5C 360.579,423.07 360.246,421.736 359.5,420.5C 360.587,419.895 361.754,420.228 363,421.5C 363.195,419.793 363.195,418.126 363,416.5C 364.085,417.293 365.252,417.96 366.5,418.5C 369.736,417.378 370.069,415.878 367.5,414C 370.478,413.304 373.478,412.804 376.5,412.5 Z"/></g>
<g><path style="opacity:0.004" fill="#fefffe" d="M 428.5,416.5 C 429.833,417.167 429.833,417.167 428.5,416.5 Z"/></g>
<g><path style="opacity:0.004" fill="#fefffe" d="M 387.5,421.5 C 388.833,422.167 388.833,422.167 387.5,421.5 Z"/></g>
<g><path style="opacity:1" fill="#e9ce5e" d="M 125.5,427.5 C 127.764,428.219 130.097,428.552 132.5,428.5C 132.433,429.959 132.766,431.292 133.5,432.5C 130.489,431.331 127.822,429.664 125.5,427.5 Z"/></g>
<g><path style="opacity:1" fill="#e1ab49" d="M 360.5,424.5 C 355.033,428.071 349.367,431.404 343.5,434.5C 345.612,432.207 347.612,429.707 349.5,427C 353.143,425.863 356.81,425.029 360.5,424.5 Z"/></g>
<g><path style="opacity:0.004" fill="#fefffe" d="M 22.5,432.5 C 23.8333,433.167 23.8333,433.167 22.5,432.5 Z"/></g>
<g><path style="opacity:1" fill="#e2af4a" d="M 341.5,435.5 C 333.352,440.236 324.686,443.903 315.5,446.5C 318.228,444.638 321.228,443.138 324.5,442C 324.167,441.667 323.833,441.333 323.5,441C 325.167,440.667 326.833,440.333 328.5,440C 327.672,439.085 326.672,438.419 325.5,438C 330.951,437.756 336.284,436.923 341.5,435.5 Z"/></g>
<g><path style="opacity:0.004" fill="#fefffe" d="M 78.5,439.5 C 79.8333,440.167 79.8333,440.167 78.5,439.5 Z"/></g>
<g><path style="opacity:1" fill="#eed166" d="M 142.5,437.5 C 148.133,437.484 152.799,439.484 156.5,443.5C 151.533,442.012 146.866,440.012 142.5,437.5 Z"/></g>
<g><path style="opacity:1" fill="#efcc56" d="M 156.5,443.5 C 162.687,445.222 168.853,446.889 175,448.5C 176.07,448.472 176.903,448.139 177.5,447.5C 179.754,448.124 181.421,449.457 182.5,451.5C 181.833,451.5 181.167,451.5 180.5,451.5C 171.957,450.208 163.957,447.541 156.5,443.5 Z"/></g>
<g><path style="opacity:1" fill="#e4ad44" d="M 315.5,446.5 C 309.636,449.675 303.303,451.675 296.5,452.5C 297.303,451.577 297.47,450.577 297,449.5C 292.366,448.51 292.366,447.51 297,446.5C 298.889,447.93 301.055,448.597 303.5,448.5C 307.51,447.83 311.51,447.163 315.5,446.5 Z"/></g>
<g><path style="opacity:0.004" fill="#fefffe" d="M 463.5,450.5 C 464.833,451.167 464.833,451.167 463.5,450.5 Z"/></g>
<g><path style="opacity:0.004" fill="#fefffe" d="M 59.5,452.5 C 60.8333,453.167 60.8333,453.167 59.5,452.5 Z"/></g>
<g><path style="opacity:1" fill="#e2b054" d="M 180.5,451.5 C 181.167,451.5 181.833,451.5 182.5,451.5C 188.398,452.901 194.398,453.734 200.5,454C 205.206,456.212 210.206,457.545 215.5,458C 230.833,458.667 246.167,458.667 261.5,458C 272.928,455.778 284.595,453.944 296.5,452.5C 257.729,463.452 219.063,463.119 180.5,451.5 Z"/></g>
<g><path style="opacity:0.004" fill="#fefffe" d="M 119.5,455.5 C 120.833,456.167 120.833,456.167 119.5,455.5 Z"/></g>
<g><path style="opacity:0.004" fill="#fefffe" d="M 364.5,456.5 C 365.833,457.167 365.833,457.167 364.5,456.5 Z"/></g>
<g><path style="opacity:0.004" fill="#fefffe" d="M 423.5,463.5 C 424.833,464.167 424.833,464.167 423.5,463.5 Z"/></g>
<g><path style="opacity:0.004" fill="#fefffe" d="M 357.5,469.5 C 358.833,470.167 358.833,470.167 357.5,469.5 Z"/></g>
<g><path style="opacity:0.004" fill="#fefffe" d="M 234.5,472.5 C 235.833,473.167 235.833,473.167 234.5,472.5 Z"/></g>
<g><path style="opacity:0.004" fill="#fefffe" d="M 326.5,473.5 C 327.833,474.167 327.833,474.167 326.5,473.5 Z"/></g>
<g><path style="opacity:0.004" fill="#fefffe" d="M 368.5,473.5 C 369.833,474.167 369.833,474.167 368.5,473.5 Z"/></g>
<g><path style="opacity:0.004" fill="#000000" d="M 437.5,482.5 C 438.833,483.167 438.833,483.167 437.5,482.5 Z"/></g>
<g><path style="opacity:0.004" fill="#000000" d="M 277.5,486.5 C 278.833,487.167 278.833,487.167 277.5,486.5 Z"/></g>
<g><path style="opacity:0.004" fill="#000000" d="M 146.5,488.5 C 147.833,489.167 147.833,489.167 146.5,488.5 Z"/></g>
<g><path style="opacity:0.004" fill="#000000" d="M 403.5,495.5 C 404.833,496.167 404.833,496.167 403.5,495.5 Z"/></g>
<g><path style="opacity:0.004" fill="#000000" d="M 156.5,499.5 C 157.833,500.167 157.833,500.167 156.5,499.5 Z"/></g>
<g><path style="opacity:0.004" fill="#000000" d="M 318.5,508.5 C 319.833,509.167 319.833,509.167 318.5,508.5 Z"/></g>
</svg>
